<svg version="1.1" id="Aspose.BarCode_for_JavaScript_via_CPP" xmlns="http://www.w3.org/2000/svg" x="0" y="0" viewBox="0 0 272 272" style="enable-background:new 0 0 272 272" xml:space="preserve"><style>.st0{fill:#fff}.st1{fill-rule:evenodd;clip-rule:evenodd;fill:#68a163}</style><g id="JavaScript_via_CPP"><g id="Python"><path class="st0" d="M208.5 239.1c-26.6 31.5-111.2 26-111.2 26H6.2V48.2h219.5v106.2s1.1 63.1-17.2 84.7z"/><path class="st1" d="M72.3 191.6c0-22 7.7-40.6 23.1-56 15.3-15.4 34-23.1 56-23.1 21.7 0 40.4 7.7 55.9 23.1s23.2 34.1 23.2 56-7.7 40.4-23.2 55.9-34.1 23.2-55.9 23.2c-22.1 0-40.7-7.7-56-23.2-15.4-15.3-23.1-34-23.1-55.9"/><path class="st1" d="M230.6 191.6h-9.3V58.1c0-3.4-1.2-5.7-3.7-6.9-.9-.4-1.9-.8-3-.9l-1.4-.2H17.8c-3.5 0-5.8 1.2-6.9 3.6-.7 1.4-1.1 2.9-1.1 4.4v195.4c0 3.4 1.2 5.7 3.6 6.8 1.4.7 2.8 1.1 4.4 1.2h129.6l4.1 9.3H14.9c-2.4 0-4.8-.6-7.2-1.8-4.8-2.4-7.2-6.6-7.2-12.6V55.3c0-2.4.6-4.8 1.9-7.2C4.9 43.4 9 41 15 41h201.3l2.2.3c1.8.3 3.5.8 4.9 1.6 4.8 2.4 7.2 6.6 7.2 12.5v136.2z"/><path d="M28.4 117.1V68.4h18.3c3.7 0 6.7.5 8.9 1.4 2.2 1 4 2.5 5.3 4.6 1.3 2 1.9 4.2 1.9 6.5 0 2-.6 4.1-1.7 5.9-1.1 1.9-2.8 3.3-5.1 4.4 3 .9 5.2 2.3 6.8 4.4 1.6 2 2.4 4.5 2.4 7.4 0 2.3-.5 4.4-1.4 6.4s-2.1 3.5-3.6 4.5c-1.4 1.1-3.2 1.9-5.4 2.4s-4.8.9-7.8.9l-18.6-.1zm6.5-28.3h10.6c2.9 0 4.9-.2 6.1-.6 1.6-.5 2.9-1.3 3.7-2.5.9-1.1 1.3-2.6 1.3-4.3 0-1.6-.4-3.1-1.2-4.3-.8-1.2-1.9-2-3.3-2.6-1.4-.4-3.9-.7-7.4-.7h-9.8v15zm0 22.6h12.2c2 0 3.6-.1 4.4-.3 1.4-.3 2.7-.7 3.7-1.4 1-.6 1.8-1.5 2.5-2.7s.9-2.6.9-4.1c0-1.8-.4-3.4-1.4-4.8-.9-1.4-2.2-2.3-3.9-2.8-1.6-.5-4-.9-7.2-.9H34.9v17z" style="fill:#68a163"/><path class="st0" d="M110 161.2h9.9v51.1H110v-51.1zm14.2 0h5.8v51.1h-5.8v-51.1zm9.8 0h5.8v51.1H134v-51.1zm9.7 0h3.7v51.1h-3.7v-51.1zm5.4 0h5.4v51.1h-5.4v-51.1zm9.8 0h3.3v51.1h-3.3v-51.1zm10 0h5.7v51.1h-5.7v-51.1zm7.5-.5h2.8v51.1h-2.8v-51.1zm7.3 0h6.1v51.1h-6.1v-51.1zm0 55.4h6.1v5.7h-6.1v-5.7zm-14.8 0h10.4v5.7h-10.4v-5.7zm-10 0h5.2v5.7h-5.2v-5.7zm-24.9 0h5.8v5.7H134v-5.7zm-24 0h5.8v5.7H110v-5.7zm14.2 0h5.8v5.7h-5.8v-5.7zm19.5 0h10.7v5.7h-10.7v-5.7z" id="Bars_4_"/></g><g id="prefix__CPP"><path d="M255.569 84.72c-.002-4.83-1.035-9.098-3.124-12.761-2.052-3.602-5.125-6.621-9.247-9.008-34.025-19.619-68.083-39.178-102.097-58.817-9.17-5.294-18.061-5.101-27.163.269C100.395 12.39 32.59 51.237 12.385 62.94 4.064 67.757.015 75.129.013 84.711 0 124.166.013 163.62 0 203.076c.002 4.724.991 8.909 2.988 12.517 2.053 3.711 5.169 6.813 9.386 9.254 20.206 11.703 88.02 50.547 101.56 58.536 9.106 5.373 17.997 5.565 27.17.269 34.015-19.64 68.075-39.198 102.105-58.817 4.217-2.44 7.333-5.544 9.386-9.252 1.994-3.608 2.985-7.793 2.987-12.518 0 0 0-78.889-.013-118.345" fill="#5C8DBC" transform="matrix(.38582 0 0 .36263 172.153 2.404)"/><path d="M128.182 143.509L2.988 215.593c2.053 3.711 5.169 6.813 9.386 9.254 20.206 11.703 88.02 50.547 101.56 58.536 9.106 5.373 17.997 5.565 27.17.269 34.015-19.64 68.075-39.198 102.105-58.817 4.217-2.44 7.333-5.544 9.386-9.252l-124.413-72.074" fill="#1A4674" transform="matrix(.38582 0 0 .36263 172.153 2.404)"/><path d="M91.101 164.861c7.285 12.718 20.98 21.296 36.69 21.296 15.807 0 29.58-8.687 36.828-21.541l-36.437-21.107-37.081 21.352" fill="#1A4674" transform="matrix(.38582 0 0 .36263 172.153 2.404)"/><path d="M255.569 84.72c-.002-4.83-1.035-9.098-3.124-12.761l-124.263 71.55 124.413 72.074c1.994-3.608 2.985-7.793 2.987-12.518 0 0 0-78.889-.013-118.345" fill="#1B598E" transform="matrix(.38582 0 0 .36263 172.153 2.404)"/><path d="M248.728 148.661h-9.722v9.724h-9.724v-9.724h-9.721v-9.721h9.721v-9.722h9.724v9.722h9.722v9.721M213.253 148.661h-9.721v9.724h-9.722v-9.724h-9.722v-9.721h9.722v-9.722h9.722v9.722h9.721v9.721" fill="#FFF" transform="matrix(.38582 0 0 .36263 172.153 2.404)"/><path d="M164.619 164.616c-7.248 12.854-21.021 21.541-36.828 21.541-15.71 0-29.405-8.578-36.69-21.296a42.062 42.062 0 01-5.574-20.968c0-23.341 18.923-42.263 42.264-42.263 15.609 0 29.232 8.471 36.553 21.059l36.941-21.272c-14.683-25.346-42.096-42.398-73.494-42.398-46.876 0-84.875 38-84.875 84.874 0 15.378 4.091 29.799 11.241 42.238 14.646 25.48 42.137 42.637 73.634 42.637 31.555 0 59.089-17.226 73.714-42.781l-36.886-21.371" fill="#FFF" transform="matrix(.38582 0 0 .36263 172.153 2.404)"/></g></g></svg>